# xmcd
#
# Track frame offsets:
#	150
#	16072
#	31672
#	48800
#	58900
#	75437
#	90767
#	112567
#	127330
#	142027
#	161992
#	179547
#	188350
#	202087
#	214467
#
# Disc length: 3043 seconds
#
# Revision: 0
# Processed by: cddbd v1.5.1PL2 Copyright (c) Steve Scherf et al.
# Submitted via: dBpowerAMP V4.0
#
DISCID=c40be10f
DTITLE=Poul F. Cowlan - Second-Class Hotel
DYEAR=1900
DGENRE=Rock
TTITLE0=Ctiy With A Broken Heart
TTITLE1=Navigators
TTITLE2=Piazza Grande
TTITLE3=Het Kafe
TTITLE4=Living On The Other Side
TTITLE5=Some Other Time
TTITLE6=Second-Class Hotel
TTITLE7=Shady Ladies
TTITLE8=Voices In The Night
TTITLE9=Under The Ice
TTITLE10=This Time
TTITLE11=A Simple Question
TTITLE12=Old Songs
TTITLE13=The Ladies Gave Me Roses
TTITLE14=You Never Really Knew Me
EXTD=
EXTT0=
EXTT1=
EXTT2=
EXTT3=
EXTT4=
EXTT5=
EXTT6=
EXTT7=
EXTT8=
EXTT9=
EXTT10=
EXTT11=
EXTT12=
EXTT13=
EXTT14=
PLAYORDER=
